<?xml version="1.0" encoding="UTF-8"?>
<svg width="64" height="64" version="1.1" viewBox="0 0 64 64" xmlns="http://www.w3.org/2000/svg" xmlns:cc="http://creativecommons.org/ns#" xmlns:dc="http://purl.org/dc/elements/1.1/" xmlns:rdf="http://www.w3.org/1999/02/22-rdf-syntax-ns#" xmlns:xlink="http://www.w3.org/1999/xlink">
 <defs>
  <style>.cls-1{fill:#253858;}.cls-2{fill:url(#linear-gradient);}.cls-3{fill:url(#linear-gradient-2);}</style>
  <linearGradient id="linear-gradient" x1="59.68" x2="20.35" y1="67.65" y2="45.05" gradientUnits="userSpaceOnUse">
   <stop stop-color="#0052cc" offset=".18"/>
   <stop stop-color="#2684ff" offset="1"/>
  </linearGradient>
  <linearGradient id="linear-gradient-2" x1="279.76" x2="240.42" y1="-1616.3" y2="-1639" gradientTransform="rotate(180 141.42 -808.36)" xlink:href="#linear-gradient"/>
  <linearGradient id="linearGradient325" x1="59.68" x2="20.35" y1="67.65" y2="45.05" gradientUnits="userSpaceOnUse" xlink:href="#linear-gradient"/>
 </defs>
 <title>Confluence-blue</title>
 <path class="cls-2" d="m2.23 49.53c-0.65 1.06-1.38 2.29-2 3.27a2 2 0 0 0 0.67 2.72l13 8a2 2 0 0 0 2.77-0.68c0.52-0.87 1.19-2 1.92-3.21 5.15-8.5 10.33-7.46 19.67-3l12.89 6.13a2 2 0 0 0 2.69-1l6.19-14a2 2 0 0 0-1-2.62c-2.72-1.28-8.13-3.83-13-6.18-17.52-8.51-32.41-7.96-43.8 10.57z" fill="url(#linearGradient325)"/>
 <path class="cls-3" d="m60.52 17.76c0.65-1.06 1.38-2.29 2-3.27a2 2 0 0 0-0.67-2.72l-13-8a2 2 0 0 0-2.85 0.66c-0.52 0.87-1.19 2-1.92 3.21-5.15 8.5-10.33 7.46-19.67 3l-12.85-6.1a2 2 0 0 0-2.69 1l-6.19 14a2 2 0 0 0 1 2.62c2.72 1.28 8.13 3.83 13 6.18 17.56 8.5 32.45 7.93 43.84-10.58z" fill="url(#linear-gradient-2)"/>
 <metadata>
  <rdf:RDF>
   <cc:Work rdf:about="">
    <dc:title>Confluence-blue</dc:title>
   </cc:Work>
  </rdf:RDF>
 </metadata>
</svg>
