<svg width="128" height="128" fill="#000000" version="1.1" viewBox="0 0 78.4 78.4" xml:space="preserve" xmlns="http://www.w3.org/2000/svg"><defs><linearGradient id="linearGradient2413" x1="32.975" x2="105.62" y1="359.38" y2="359.38" gradientUnits="userSpaceOnUse"><stop stop-color="#5e61e0" offset="0"/></linearGradient></defs>

	
		<path d="m75.2 0h-72c-1.7645 0-3.2 1.4355-3.2 3.2v51.2c0 1.7645 1.4355 3.2 3.2 3.2h24v11.2h-2.4c-1.7645 0-3.2 1.4355-3.2 3.2v3.2h-2.4v3.2h40v-3.2h-2.4v-3.2c0-1.7645-1.4355-3.2-3.2-3.2h-2.4v-11.2h24c1.7645 0 3.2-1.4355 3.2-3.2v-51.2c0-1.7645-1.4355-3.2-3.2-3.2zm-72 32h7.2v6.4h-7.2zm50.4 40v3.2h-28.8v-3.2zm-23.2-3.2v-11.2h17.6v11.2zm44.8-14.4h-72v-12.8h72zm-35.2-25.034v9.0341h-8.8v-19.43c0.55728-0.1648 1.0824-0.41728 1.561-0.74608l3.657 3.657c-0.27264 0.66864-0.41792 1.3907-0.41792 2.1192 0 2.5318 1.6896 4.6757 4 5.3659zm6.7821-7.4853 1.257-1.257c0.47856 0.3288 1.0037 0.58128 1.5608 0.74608v17.03h-6.4v-9.0341h1.6e-4c2.3104-0.69024 4-2.8339 4-5.3659 0-0.72848-0.14528-1.4507-0.41792-2.1194zm6.3405-4.444c-0.46176 0.61232-1.1626 0.96336-1.9226 0.96336s-1.4608-0.35104-1.9226-0.96336c-3.2e-4 -4.8e-4 -8e-4 -0.0011-0.0013-0.0016-0.30702-0.40608-0.47614-0.91584-0.47614-1.435 0-1.3234 1.0766-2.4 2.4-2.4s2.4 1.0766 2.4 2.4c0 0.5192-0.16912 1.029-0.47744 1.4366zm1.2384 3.1872 8.839 8.839v8.9371h-10.4v-17.03c0.55728-0.1648 1.0824-0.41728 1.561-0.74608zm-12.761 5.7762c-1.3234 0-2.4-1.0766-2.4-2.4 0-0.5192 0.16912-1.029 0.47744-1.4366 0.46176-0.61232 1.1626-0.96336 1.9226-0.96336s1.4608 0.35104 1.9226 0.96336c3.2e-4 4.8e-4 8e-4 0.0011 0.0013 0.0016 0.30704 0.40608 0.47616 0.91584 0.47616 1.435 0 1.3234-1.0766 2.4-2.4 2.4zm-10.077-11.363c-0.46176 0.61232-1.1626 0.96336-1.9226 0.96336s-1.4608-0.35104-1.9226-0.96336c-3.2e-4 -4.8e-4 -8e-4 -0.0011-0.0013-0.0016-0.30702-0.40608-0.47614-0.91584-0.47614-1.435 0-1.3234 1.0766-2.4 2.4-2.4s2.4 1.0766 2.4 2.4c0 0.5192-0.16912 1.029-0.47744 1.4366zm-3.5226 3.9331v19.43h-14.4v-7.3371l12.839-12.839c0.47856 0.3288 1.0037 0.58128 1.5608 0.74608zm47.2 19.43h-8.8v-8h8.8zm0-11.2h-9.7373l-9.0806-9.0806c0.27264-0.6688 0.41792-1.3909 0.41792-2.1194 0-3.0878-2.5122-5.6-5.6-5.6s-5.6 2.5122-5.6 5.6c0 0.72848 0.14528 1.4507 0.41792 2.1194l-1.257 1.257c-0.91792-0.63056-2.009-0.97632-3.161-0.97632-1.1522 0-2.2434 0.34592-3.161 0.97632l-3.657-3.657c0.27264-0.6688 0.41792-1.3909 0.41792-2.1194 0-3.0878-2.5122-5.6-5.6-5.6s-5.6 2.5122-5.6 5.6c0 0.72848 0.14528 1.4507 0.41792 2.1194l-13.081 13.081h-8.1373v-25.6h72z" stroke-width=".16"/>
	
<g transform="scale(.16)">
<path transform="scale(.6125)" d="m32.975 163.44v-130.47h734.05v243.73h-98.917l-91.876-91.861 1.7946-6.8769c2.4198-9.2726 1.8654-25.226-1.1764-33.852-4.7835-13.565-15.392-25.571-28.15-31.859-23.493-11.578-48.458-7.6078-66.755 10.618-5.9398 5.9165-8.1665 8.9878-11.15 15.379-6.0536 12.968-7.388 26.454-3.9113 39.528l1.7792 6.6906-11.983 12.12-5.716-2.8854c-8.0751-4.0763-16.577-6.0411-26.275-6.0718-10.289-0.0326-16.389 1.3157-25.541 5.6446l-7.0645 3.3417-36.35-36.35 1.7896-6.0595c2.3813-8.0632 2.4022-22.973 0.0434-30.91-6.7526-22.721-25.36-38.606-48.673-41.552-27.836-3.5177-54.2 14.037-62.403 41.552-2.3334 7.8274-2.2974 22.762 0.0745 30.911l1.7639 6.06-133.63 133.64h-81.726z" fill="#ea5656"/><path transform="scale(.6125)" d="m32.975 489.84v-64.994h734.05v129.99h-734.05z" fill="#0e7749"/><path transform="scale(.6125)" d="m32.975 359.38v-32.019h72.64v64.038h-72.64z" fill="url(#linearGradient2413)"/><path transform="scale(.6125)" d="m32.975 359.38v-32.019h72.64v64.038h-72.64z" fill="#85a7e0"/><path transform="scale(.6125)" d="m32.975 359.38v-32.019h72.64v64.038h-72.64z" fill="#42b5e7"/></g><g transform="scale(.16)" fill="#42b5e7"><path transform="scale(.6125)" d="m139.07 354.36v-37.04l130.47-130.41 6.5667 3.3195c3.6117 1.8257 7.1601 3.3195 7.8853 3.3195 1.1125 0 1.3186 15.466 1.3186 98.925v98.925h-146.24z"/><path transform="scale(.6125)" d="m318.76 292.47c0-83.459 0.20615-98.925 1.3186-98.925 0.72524 0 4.2736-1.4927 7.8853-3.3171l6.5667-3.3171 36.514 36.439-1.3008 3.7756c-9.4085 27.308 5.7209 60.372 32.409 70.828l5.4958 2.153v91.288h-88.889z"/><path transform="scale(.6125)" d="m441.1 345.74v-45.654l4.672-1.6594c10.034-3.5636 22.573-14.255 28.419-24.23 1.3634-2.3265 3.5805-7.339 4.9268-11.139 3.1967-9.0222 3.5477-24.619 0.76467-33.977l-1.7965-6.0409 12.034-12.142 3.4469 2.1586c1.8958 1.1873 5.4899 2.9325 7.987 3.8783l4.54 1.7197v172.74h-64.994z"/><path transform="scale(.6125)" d="m539.55 304.87c0-81.565 0.096-86.561 1.6726-87.072 0.91995-0.29822 4.4137-1.8431 7.7638-3.433l6.0912-2.8908 89.61 89.595v90.33h-105.14z"/><path transform="scale(.6125)" d="m678.14 351.25v-40.143h88.889v80.287h-88.889z"/></g></svg>
