<?xml version="1.0" encoding="UTF-8"?>
<svg width="256" height="256" version="1.1" viewBox="0 0 67.733 67.733" xml:space="preserve" xmlns="http://www.w3.org/2000/svg"><ellipse cx="33.867" cy="33.867" rx="29.977" ry="20.562" fill="#002" stroke="#2b2" stroke-width="2.2669"/><ellipse cx="33.921" cy="33.867" rx="21.641" ry="21.696" fill="#0c71b4"/><path d="m32.278 54.459c-0.10957-0.01656-0.20352-0.07017-0.21025-0.11702-0.0059-0.04794-0.01367-0.12029-0.01844-0.16169-0.01172-0.10111-0.51858-0.54696-0.8512-0.74918-0.16794-0.10111-0.30247-0.25648-0.35758-0.41185-0.04969-0.13728-0.11652-0.24994-0.14841-0.24994-0.03125 0-0.05663-0.04685-0.05663-0.10438 0-0.05818-0.06878-0.15276-0.15254-0.2129-0.0831-0.05818-0.13084-0.14142-0.10437-0.18414 0.02973-0.04794 0.0048-0.06058-0.06466-0.03465-0.08202 0.03247-0.11174-0.0044-0.11174-0.13227 0-0.1107-0.12454-0.30595-0.33328-0.52626-0.34434-0.3589-0.4921-0.80017-0.33632-0.99913 0.03971-0.0499 0.09265-0.17978 0.11912-0.28873 0.02604-0.10852 0.14472-0.27021 0.26276-0.35868 0.25647-0.19002 0.26384-0.26019 0.06357-0.60078-0.08375-0.14251-0.13301-0.30791-0.10914-0.37023 0.02322-0.06058-0.09156-0.38832-0.25582-0.72565-0.22153-0.45849-0.40097-0.70974-0.70344-0.98736-0.36496-0.33406-0.731-0.83961-0.731-1.0102 0-0.03465 0.04925-0.06494 0.10849-0.06494 0.07356 0 0.10914-0.07561 0.11066-0.23513 0.0015-0.12988 0.04969-0.29898 0.10849-0.37677 0.18855-0.25103 0.07724-0.76574-0.12281-0.56613-0.04925 0.05034-0.13127 0.09043-0.18378 0.09043-0.13301 0-0.11652-0.2129 0.02126-0.26563 0.20917-0.08085-0.05142-0.16758-0.51163-0.16954-0.23846-0.0011-0.46997-0.02658-0.51445-0.05535-0.04448-0.03051-0.16686-0.22336-0.27014-0.43059-0.16534-0.32926-0.22522-0.38418-0.46194-0.42885-0.36344-0.06842-0.80932-0.06755-1.4626 0.0028-0.50794 0.05535-0.56522 0.0462-0.90328-0.13576-0.27968-0.14992-0.50057-0.20331-0.97531-0.23447-0.703-0.04751-0.76181-0.08477-1.3932-0.89387-0.20287-0.2591-0.51706-0.60819-0.69758-0.77664-0.21568-0.20113-0.30138-0.32512-0.24844-0.36282 0.12932-0.09043 0.03124-0.49117-0.17792-0.72739-0.10545-0.1192-0.23303-0.27762-0.28294-0.35214-0.05034-0.07605-0.15731-0.23556-0.23781-0.35432-0.10849-0.16169-0.13236-0.27348-0.09373-0.43517 0.02907-0.12029 0.05555-0.38026 0.05728-0.57986 0.0026-0.23142 0.04556-0.40118 0.11869-0.47134 0.1521-0.14469 0.30138-0.50752 0.20917-0.50752-0.03862 0-0.07052-0.09784-0.07052-0.21813 0-0.1192 0.02799-0.21704 0.06249-0.21704s0.0588 0.05709 0.05446 0.12661c-0.01953 0.28525 0.12454 0.17564 0.15102-0.11528 0.01953-0.21028 0.0037-0.29963-0.04708-0.26716-0.09634 0.05905-0.09742 0.07496 0.03168-0.54151 0.08788-0.421 0.16577-0.58378 0.41594-0.87535 0.16902-0.19721 0.36387-0.37612 0.4333-0.39834 0.06987-0.02245 0.12606-0.08825 0.12606-0.14796 0-0.19263 0.21936-0.4465 0.42159-0.48682 0.11239-0.02266 0.24215-0.12072 0.29769-0.22445 0.07681-0.1436 0.13604-0.17498 0.26688-0.14251 0.10437 0.02724 0.17011 0.01133 0.17011-0.04053 0-0.04576 0.04036-0.07714 0.09005-0.06842 0.04969 0.0078 0.1393-0.0063 0.19875-0.03181 0.05923-0.02506 0.19333-0.07627 0.29661-0.1144 0.14516-0.05317 0.19875-0.13402 0.23368-0.348 0.06097-0.3857 0.49471-0.82894 0.92215-0.94269 0.40531-0.10743 0.70778-0.48355 0.65788-0.81978-0.0217-0.15058-0.07247-0.21769-0.16425-0.21769-0.07247 0-0.15145-0.0329-0.17597-0.07235-0.02495-0.03988-0.10762-0.07278-0.1853-0.07278-0.16642 0-0.17271-0.05862-0.02907-0.2506 0.06791-0.09 0.09113-0.22249 0.06466-0.36391-0.03276-0.17716 0.0037-0.28089 0.17901-0.50229 0.22934-0.28939 0.36604-0.66332 0.36712-1.0013 4.34e-4 -0.1691 0.04231-0.20811 0.29661-0.27718 0.24584-0.06603 0.31722-0.06058 0.4205 0.03356 0.06878 0.06232 0.17315 0.11331 0.23152 0.11331 0.0588 0 0.13821 0.0329 0.17749 0.07191 0.03862 0.03879 0.2326 0.12072 0.42962 0.18087 0.34434 0.10525 0.36452 0.10373 0.48321-0.03944 0.06835-0.08237 0.14559-0.26237 0.17054-0.399 0.05446-0.29048-0.01801-0.75594-0.1176-0.75594-0.03754 0-0.06878-0.04533-0.06878-0.10155 0-0.05579-0.04882-0.11963-0.10849-0.14317-0.06314-0.02441-0.10805-0.13293-0.10805-0.26128 0-0.20745 0.01584-0.21966 0.28294-0.21966 0.15622 0 0.30138 0.04097 0.32481 0.09087 0.02278 0.0499 0.02126 0.01177-0.0026-0.08346-0.0345-0.13728-0.01953-0.16496 0.06835-0.13096 0.0614 0.02397 0.12498 0.0044 0.14255-0.04358 0.02061-0.05949 0.07638-0.0462 0.17749 0.04467 0.13995 0.12443 0.16165 0.12508 0.42593 0.0085l0.2786-0.12334-0.25321-0.06341c-0.13886-0.03465-0.49644-0.07562-0.79457-0.09152-0.29834-0.01482-0.59907-0.03138-0.66807-0.03508-0.19593-0.01177-0.14885-0.12922 0.0716-0.17869 0.10957-0.02441 0.26384-0.09523 0.34369-0.1569 0.11717-0.09152 0.12498-0.12399 0.0434-0.17498-0.13301-0.08193-0.04708-0.29418 0.11977-0.29418 0.09634 0 0.13084-0.05382 0.12867-0.19895-0.0022-0.17498 0.02235-0.19677 0.1955-0.17825 0.17597 0.01809 0.19767-0.0026 0.19072-0.18152-0.0048-0.12334-0.02126-0.15276-0.04123-0.07605-0.01801 0.07017-0.08267 0.12661-0.14364 0.12661-0.06835 0-0.09525-0.04097-0.07052-0.10743 0.0345-0.09 0.01801-0.09305-0.10068-0.01852-0.0779 0.04947-0.1419 0.15755-0.1419 0.24145 0 0.08346-0.05663 0.20222-0.1265 0.26324-0.14624 0.12813-0.74749 0.23186-0.95774 0.16496-0.21502-0.06864-0.18964-0.38091 0.03927-0.48616 0.10914-0.04947 0.16837-0.12399 0.14559-0.18305-0.05663-0.14796 0.17792-0.46916 0.30681-0.42035 0.0588 0.02332 0.16729-0.01177 0.23954-0.07823 0.07638-0.06908 0.20396-0.10482 0.30464-0.08564 0.11608 0.02245 0.2007-0.01177 0.25647-0.10002 0.05142-0.08237 0.05511-0.13293 0.01-0.13293-0.12823 0-0.07833-0.14469 0.05403-0.15319 0.1202-0.0085 0.1202-0.01002 0-0.0414-0.17011-0.04467-0.15948-0.12443 0.04405-0.34517 0.17488-0.19002 0.40727-0.24842 0.40727-0.10329 0 0.05753 0.03124 0.05579 0.1048-0.0063 0.05772-0.04794 0.14147-0.06537 0.1853-0.0377 0.0434 0.02724 0.14407-0.0085 0.22153-0.07932 0.11283-0.10264 0.15948-0.11005 0.23-0.03835 0.07095 0.07126 0.03971 0.13402-0.14668 0.30268-0.20287 0.18348-0.21568 0.2129-0.09048 0.2129 0.19181 0 0.19181 0.22619 0 0.39943-0.16729 0.1521-0.14841 0.39856 0.0805 1.0349 0.15687 0.43888 0.18161 0.93092 0.04708 0.97842-0.04969 0.01809-0.06878 0.05579-0.04296 0.08411 0.0805 0.08782 0.46129-0.15472 0.66634-0.42624 0.17749-0.2336 0.22934-0.25801 0.54939-0.25801 0.38991 0 0.40206-0.01547 0.47084-0.57245 0.05403-0.4319 0.11435-0.51863 0.43916-0.63042 0.21568-0.07496 0.29075-0.0767 0.33371-0.0092 0.03233 0.05099 0.0562-0.01068 0.0562-0.14796 0.0015-0.26019-0.10176-0.30115-0.32785-0.12879-0.07724 0.05862-0.23781 0.10743-0.35758 0.10852-0.32199 0.0033-0.42007-0.20266-0.35801-0.74962 0.06726-0.58727 0.18074-0.78993 0.53441-0.94966 0.16208-0.07344 0.294-0.15908 0.294-0.19002 0-0.03181 0.11435-0.09893 0.2543-0.14905 0.1712-0.06232 0.33848-0.21486 0.5112-0.4672 0.1419-0.20593 0.33588-0.41665 0.43222-0.46764 0.0959-0.05273 0.16165-0.10743 0.14516-0.12443-0.01649-0.01656-0.10068 0.0085-0.18704 0.0547s-0.17423 0.06712-0.1955 0.04576c-0.05728-0.05796 0.41204-0.47287 0.71451-0.63042 0.14624-0.07605 0.28554-0.17128 0.31093-0.21181 0.02495-0.04097 0.14082-0.07453 0.25799-0.07453 0.11652 0 0.21242-0.02615 0.21242-0.05753 0-0.08564 0.43113-0.21595 0.73316-0.22183 0.18443-0.0037 0.32069 0.04838 0.45522 0.17389 0.10588 0.0985 0.23954 0.17825 0.29661 0.17825 0.05772 0 0.1048 0.03291 0.1048 0.07278 0 0.03988 0.06401 0.07235 0.14299 0.07235 0.25582 0 1.069 0.37764 1.1528 0.53563 0.04708 0.08673 0.16035 0.15755 0.26493 0.16387 0.16838 0.01002 0.17315 0.0011 0.06922-0.1144-0.06184-0.06908-0.11283-0.17978-0.11283-0.24624 0-0.06712-0.03342-0.12181-0.07269-0.12181-0.03971 0-0.07247-0.05208-0.07247-0.11658 0-0.09 0.05403-0.10961 0.2352-0.08302 0.12867 0.01765 0.2914 0.05688 0.36018 0.08716 0.09265 0.04053 0.19333-0.02244 0.38991-0.24101 0.17098-0.19198 0.34998-0.31227 0.50686-0.34212 0.46368-0.08673 0.19246-0.39268-0.29986-0.33733-0.19333 0.02179-0.38036-7e-3 -0.52487-0.08237-0.19029-0.0985-0.23152-0.1691-0.26797-0.46132-0.02387-0.18936-0.06205-0.42624-0.0844-0.5256-0.08788-0.39856-0.04817-0.60165 0.14581-0.7433 0.10415-0.07671 0.19072-0.18784 0.19072-0.24733 0-0.06428 0.05121-0.09784 0.12606-0.08237 0.09894 0.01961 0.12021 0.08085 0.09851 0.27762-0.01584 0.13837-0.03168 0.49096-0.0345 0.7847-0.0056 0.47025 0.0128 0.54957 0.15688 0.66659 0.21502 0.17455 0.84448 0.29309 1.2068 0.22706l0.28923-0.05317-0.19918-0.17346c-0.10914-0.09632-0.1981-0.23948-0.1981-0.31924s-0.04557-0.19568-0.10068-0.2591c-0.05555-0.06276-0.12389-0.2251-0.15254-0.36021-0.04969-0.23578-0.04448-0.24319 0.13192-0.19895 0.15991 0.03988 0.18638 0.0207 0.20656-0.1521l0.02257-0.19895 0.16208 0.17607c0.13192 0.14208 0.16273 0.15276 0.16273 0.05317 0-0.06712-0.03558-0.12247-0.08006-0.12247-0.04708 0-0.06683-0.07562-0.046-0.18152 0.01844-0.09959 0.0089-0.18152-0.02191-0.18152-0.03124 0-0.07681-0.13837-0.1022-0.30813-0.09287-0.61386-0.12086-0.69209-0.2595-0.72892-0.1981-0.05208-0.18009-0.26716 0.02235-0.27021 0.15796-0.0026 0.15818-0.0048 0.01736-0.08411-0.07876-0.04533-0.16837-0.11811-0.19702-0.16126-0.03645-0.0547-0.05338-0.05535-0.05446-0.0015-0.0011 0.04249-0.20938 0.1192-0.46303 0.16975-0.4869 0.09741-0.64312 0.06385-0.84404-0.18239-0.09482-0.11484-0.0831-0.12138 0.14407-0.07671 0.1712 0.03465 0.29986 0.01438 0.42224-0.06603 0.1048-0.06908 0.24475-0.0985 0.34955-0.07191 0.10328 0.02615 0.1738 0.01177 0.1738-0.034 0-0.05165 0.10849-0.06232 0.31462-0.03138 0.25039 0.03726 0.32351 0.02397 0.3591-0.06755 0.05446-0.1436 0.26949-0.14622 0.71624-0.01002 0.33306 0.1022 0.34326 0.10046 0.34326-0.04729 0-0.08346 0.05663-0.19416 0.1265-0.24798 0.115-0.08782 0.10914-0.09675-0.06791-0.09893-0.23086-0.0026-0.28294-0.06646-0.22718-0.28045 0.0332-0.12704 0.09634-0.15864 0.33935-0.16278 0.16425-0.0037 0.25798-0.02245 0.20873-0.04249-0.05012-0.02027-0.09048-0.0815-0.09048-0.13728 0-0.26171-0.74163-0.46916-0.99332-0.27827-0.25582 0.19481-0.74054 0.07235-0.74054-0.18719 0-0.0767-0.03211-0.15864-0.07204-0.18305-0.12975-0.08041-0.07638-0.25387 0.07941-0.25387 0.0907 0 0.16642 0.05796 0.1892 0.14469 0.02061 0.07932 0.07204 0.14535 0.1137 0.14535 0.04188 0 0.13518 0.05426 0.20656 0.1192 0.12194 0.11005 0.13453 0.11005 0.1764 0 0.02473-0.06494 0.09048-0.1192 0.14624-0.1192 0.11977 0 0.13279-0.11593 0.02235-0.18522-0.0434-0.02659-0.06249-0.10896-0.0434-0.18239 0.02473-0.09566-0.03602-0.17607-0.2109-0.2798-0.24692-0.14622-0.32264-0.292-0.15536-0.29854 0.14733-0.0059-0.53658-0.33667-0.81193-0.3942-0.13952-0.02876-0.61079-0.22554-1.0478-0.43735-0.43764-0.21181-0.86834-0.40641-0.95774-0.43299-0.18291-0.05382-0.22045-0.18305-0.05468-0.18305 0.05924 0 0.10871-0.0329 0.10871-0.07235 0-0.03988 0.04882-0.07235 0.10805-0.07235 0.05967 0 0.10806 0.03247 0.10806 0.07235 0 0.03944 0.08939 0.07278 0.19918 0.07278 0.10849 4.36e-4 0.29596 0.05208 0.41529 0.11549 0.2914 0.15385 0.9751 0.22706 0.9751 0.10438 0-0.05687 0.04773-0.07235 0.12672-0.0414 0.06922 0.02659 0.50013 0.12813 0.95709 0.22663 0.45652 0.09741 0.8959 0.2081 0.97531 0.24515 0.35541 0.16757 0.71516 0.292 0.84339 0.292 0.07681 0 0.23564 0.0499 0.35215 0.1107 0.19181 0.09959 0.21286 0.09959 0.21286 0 0-0.06058 0.03341-0.1107 0.07312-0.1107 0.03927 0 0.07204 0.04947 0.07204 0.10852 0 0.05949 0.05685 0.10896 0.12715 0.10896 0.07052 0 0.30572 0.06821 0.524 0.15167 0.21763 0.08302 0.51163 0.17564 0.6531 0.20527 0.28923 0.05949 1.0072 0.4319 1.0072 0.52299 0 0.08237-0.82321-0.10111-1.4807-0.33035-0.07941-0.02811-0.02257 0.02441 0.12563 0.11658 0.1482 0.09218 0.27057 0.20898 0.27057 0.2591 6.51e-4 0.04947 0.0345 0.09043 0.07486 0.09043s0.21199 0.12617 0.37928 0.28154c0.16772 0.15537 0.64659 0.48616 1.0641 0.7348 0.41746 0.24907 0.86031 0.54957 0.98529 0.66768 0.14299 0.13576 0.24475 0.18566 0.27513 0.13619 0.0703-0.1144-0.01909-0.22445-0.14299-0.17673-0.10024 0.03835-0.11717 0.01177-0.13453-0.21072-0.0039-0.0499-0.05685-0.12878-0.11543-0.17498-0.21676-0.16975-0.0048-0.17346 0.47995-0.01068 0.50469 0.17019 0.65419 0.27239 0.52118 0.35432-0.04405 0.02811-0.02495 0.06537 0.04665 0.0937 0.06683 0.0255 0.15188 0.02724 0.18964 0.0037 0.03819-0.02397 0.1137-0.0059 0.16946 0.03988 0.05555 0.04685 0.2007 0.08673 0.32308 0.09 0.16143 0.0052 0.21719 0.03835 0.20352 0.1229-0.01172 0.07562 0.03537 0.11658 0.13822 0.11811 0.18747 0.0026 0.89091 0.57725 0.89091 0.72717 0 0.14731-0.10024 0.12922-0.2595-0.04729-0.07529-0.08346-0.20179-0.18305-0.28185-0.2214-0.17098-0.08194 0.24952 0.30856 0.88158 0.8176 0.25885 0.20854 0.54136 0.52081 0.66699 0.7385 0.22609 0.38788 1.0964 1.3247 1.5286 1.645l0.24432 0.18152-0.27122-0.37241c-0.2825-0.38832-0.31418-0.46176-0.20352-0.46176 0.09525 0 1.3374 1.6609 1.2823 1.7152-0.02539 0.02506-0.09525 0.0044-0.15579-0.0462-0.15405-0.12879-0.1367-0.0547 0.0345 0.1436 0.14234 0.16605 0.18573 0.29004 0.10068 0.29004-0.0243 0-0.21155-0.17934-0.41638-0.39856-0.20504-0.21856-0.40249-0.39856-0.43829-0.39856-0.03602 0-0.12975-0.05688-0.20808-0.12661-0.14038-0.12508-0.14038-0.12443-0.02191 0.10852 0.07833 0.15276 0.09113 0.23513 0.03819 0.23513-0.04491 0-0.06249 0.05164-0.03927 0.11288 0.02821 0.07344 0.01432 0.09523-0.03862 0.06123-0.16642-0.1022 0.01909 0.11222 0.22088 0.25583l0.20439 0.14687-0.02473-0.21595c-0.03992-0.34582 0.09742-0.24994 0.34109 0.2384 0.29032 0.58204 0.35953 0.66921 0.43157 0.55175 0.03884-0.06232 0.16382 0.0292 0.40423 0.29571 0.39208 0.43299 0.58063 0.71497 0.90371 1.346 0.12281 0.23883 0.2914 0.50599 0.37537 0.59207 0.2543 0.26019 0.33762 0.37873 0.4461 0.64044 0.13778 0.32926 0.13561 0.49945-0.0063 0.44476-0.08484-0.0329-0.09525-0.01373-0.04274 0.08302 0.09525 0.18043 0.37016 1.5254 0.37016 1.8119 0 0.13358 0.07052 0.39573 0.15687 0.58313 0.17554 0.382 0.2697 1.1013 0.14407 1.1013-0.04274 0-0.11435-0.13837-0.15796-0.30813-0.12975-0.50425-0.1547-0.57463-0.18964-0.53846-0.01844 0.01852 0.01345 0.28721 0.07269 0.5986 0.09742 0.5171 0.13279 0.5901 0.42376 0.86032 0.40792 0.3783 0.53181 0.82044 0.59647 2.1259 0.04123 0.84376 0.03385 0.96077-0.06639 0.96077-0.06184 0-0.11326-0.04903-0.11326-0.10852 0-0.06014-0.04882-0.10896-0.1074-0.10896-0.05923 0-0.10805-0.04903-0.10805-0.10808 0-0.16278-0.1278-0.1314-0.18335 0.04424-0.05924 0.18784 0.02647 0.93484 0.10697 0.93484 0.03276 0 0.07985 0.13946 0.10523 0.309 0.03341 0.21857 0.09221 0.33144 0.20027 0.38091 0.32069 0.14796 0.48624 1.4833 0.31961 2.5714-0.05837 0.37764-0.14082 0.69841-0.18335 0.71323-0.04231 0.01351-0.07724 0.07235-0.07724 0.1277 0 0.05709-0.03276 0.10329-0.07269 0.10329-0.03971 0-0.07204-0.04947-0.07204-0.10961 0-0.13728-0.29813-0.7884-0.37602-0.82153-0.09482-0.03988-0.06509-0.17128 0.0588-0.26215 0.10285-0.07561 0.09482-0.09959-0.07269-0.2092-0.23954-0.15799-0.24301-0.4064-0.01063-0.62562 0.14993-0.14142 0.19702-0.15319 0.29097-0.07561 0.06184 0.05165 0.13236 0.07344 0.15796 0.04794 0.07312-0.07387-0.20136-0.98954-0.29661-0.98954-0.04969 0-0.14038-0.24079-0.21199-0.56178-0.21568-0.9708-0.27708-1.2029-0.43222-1.6496l-0.15254-0.43517-0.07421 0.39311c-0.0716 0.37394-0.22197 0.56439-0.2825 0.3565-0.01519-0.05317-0.06574-0.23578-0.11131-0.40488-0.046-0.16975-0.11066-0.30813-0.14342-0.30813-0.03385 0-0.18508-0.1144-0.33697-0.25387-0.15145-0.14055-0.294-0.25387-0.3157-0.25278-0.07638 0.0022-0.50968 1.0305-0.50968 1.2081 0 0.09741-0.04557 0.32992-0.10068 0.51754-0.11977 0.40597-0.27404 1.287-0.26666 1.5247 0.0028 0.09327-0.07312 0.33253-0.16837 0.53301-0.16035 0.33689-0.16642 0.38265-0.0703 0.61146 0.0562 0.13663 0.10632 0.40226 0.11022 0.59098 0.0089 0.40967 0.11131 0.79233 0.23347 0.86816 0.18074 0.11179 0.4064 0.51928 0.4064 0.73371 0 0.27566-0.12888 0.56853-0.27513 0.62454-0.14733 0.05688-0.21828-0.07082-0.27578-0.49226-0.05186-0.38461-0.14407-0.37132-0.27643 0.04053-0.05837 0.17978-0.11717 0.23622-0.25061 0.23622-0.13822 0-0.21719-0.08237-0.37971-0.399-0.11304-0.21856-0.23737-0.40967-0.27751-0.42231-0.04036-0.01373-0.15254-0.19307-0.24996-0.399-0.09742-0.20571-0.25647-0.45849-0.35172-0.56112-0.09525-0.1022-0.1955-0.25757-0.22349-0.3443-0.02756-0.08651-0.0831-0.15799-0.12454-0.15799-0.04101 0-0.05815-0.04467-0.03689-0.10002s-0.03992-0.2166-0.13691-0.35868c-0.09612-0.14208-0.17423-0.29113-0.17423-0.33101 0-0.04053-0.11825-0.05753-0.27339-0.03901-0.18335 0.02244-0.36496-0.01417-0.55611-0.11288-0.15687-0.08019-0.32742-0.14622-0.37819-0.14622s-0.0933-0.04642-0.0933-0.10285c0-0.05687-0.09959-0.12486-0.22153-0.15145-0.12194-0.02724-0.23889-0.09566-0.26059-0.15276-0.02235-0.05687-0.1048-0.13946-0.18443-0.1813-0.1137-0.06058-0.18638-0.04859-0.3348 0.05993-0.10415 0.07561-0.30442 0.18414-0.44285 0.23948-0.1393 0.05709-0.31614 0.1606-0.39403 0.2336-0.07833 0.07169-0.17532 0.11811-0.21654 0.10329-0.04188-0.01438-0.22197 0.01634-0.40011 0.07017-0.40466 0.12247-0.81084 0.12661-0.92497 0.0122-0.12715-0.12704-0.11478 0.11288 0.01909 0.37198 0.12194 0.23731 0.27122 0.31227 0.50187 0.2543 0.10003-0.0255 0.26645 0.0207 0.43439 0.12029 0.25365 0.14949 0.26905 0.17803 0.22609 0.42144-0.02473 0.1436-0.06357 0.38309-0.08614 0.53301-0.02495 0.16496-0.0805 0.27174-0.1419 0.27174-0.06791 0-0.10133 0.08825-0.10133 0.27304 0 0.19372-0.04079 0.29832-0.14407 0.36326-0.07941 0.04968-0.14516 0.15864-0.14516 0.24101 0 0.09152-0.05837 0.16714-0.14776 0.19046-0.08961 0.02332-0.16425 0.1192-0.18855 0.24079-0.02495 0.12617-0.09916 0.21704-0.19441 0.2421-0.24041 0.06167-0.68435 0.46437-0.70973 0.64415-0.0141 0.10068-0.15991 0.25169-0.38405 0.399-0.19875 0.13096-0.43851 0.30922-0.53181 0.39638-0.21611 0.20048-0.8857 0.63521-0.979 0.63521-0.03927 0-0.15883 0.08455-0.26666 0.18828-0.11912 0.11528-0.28749 0.19263-0.43157 0.19939-0.21199 0.01024-0.25321-0.02245-0.40011-0.31488-0.20439-0.40858-0.2569-0.56112-0.28185-0.82719-0.01367-0.14753-0.13084-0.31292-0.38405-0.54434-0.20027-0.18348-0.38253-0.40009-0.40575-0.48355-0.02278-0.08302-0.14733-0.19634-0.27556-0.25387-0.18183-0.08019-0.25647-0.17607-0.33328-0.42929-0.16642-0.54761-0.31245-0.79908-0.49362-0.84441-0.09373-0.02441-0.21936-0.13728-0.2786-0.25256-0.05967-0.11484-0.13561-0.2092-0.16989-0.2092-0.03385 0-0.08224-0.07344-0.10654-0.16278-0.07724-0.27871-0.50317-0.72042-0.64312-0.66659-0.06791 0.02593-0.12324 0.09675-0.12324 0.15755 0 0.13946 0.3745 0.80017 0.57629 1.0172 0.08419 0.08978 0.13496 0.19307 0.11283 0.22924-0.05294 0.08629 0.03038 0.29571 0.11825 0.29571 0.20287 0 0.46346 0.44258 0.5329 0.90651 0.03819 0.25822 0.09373 0.35389 0.25842 0.45173 0.11543 0.06842 0.28077 0.27239 0.36604 0.4526 0.08592 0.17978 0.19137 0.35214 0.23412 0.38091 0.05186 0.03617 0.04882 0.05382-0.01172 0.05426-0.04817 6.54e-4 -0.06878 0.05056-0.046 0.11026 0.05511 0.14295 0.17054 0.13946 0.17054-0.0052 0-0.07627 0.05294-0.10634 0.16208-0.09043 0.10697 0.01482 0.16252 0.07278 0.16252 0.16844 0 0.08934 0.11652 0.22292 0.30572 0.35062 0.4576 0.30638 0.7119 0.56919 0.76701 0.7895 0.07876 0.32142 0.28598 0.38134 0.68261 0.20113 0.18704-0.0852 0.38839-0.18588 0.44762-0.22249 0.05924-0.03726 0.15731-0.08782 0.21611-0.11179 0.46976-0.18784 0.91369-0.4221 0.96143-0.50708 0.03168-0.05579 0.12151-0.10155 0.19875-0.10155 0.10523 0 0.14082 0.0499 0.14082 0.20266 0 0.11179 0.04036 0.24472 0.09005 0.29483 0.07247 0.07344 0.06618 0.10525-0.03341 0.16169-0.06791 0.03835-0.10588 0.11484-0.08484 0.17019 0.02083 0.05491-0.0332 0.23905-0.1202 0.41033-0.08636 0.17019-0.23629 0.51863-0.33111 0.77468-0.27231 0.72608-0.62186 1.2059-1.5694 2.153-1.3095 1.3105-1.9988 2.1419-1.7757 2.1419 0.11283 0 0.07638 0.27762-0.03992 0.30333-0.09438 0.02027-0.09525 0.04794-0.0063 0.21922 0.11608 0.22336 0.11131 0.35759-0.01844 0.51492-0.12194 0.14687-0.03558 0.46284 0.13822 0.50752 0.12389 0.0329 0.13735 0.10286 0.12715 0.67771l-0.01172 0.64153-0.29769 0.28939c-0.16881 0.16496-0.45977 0.348-0.67068 0.4234-0.20548 0.07235-0.41356 0.18087-0.46303 0.24014-0.04969 0.05949-0.21502 0.17237-0.36908 0.25103-0.30724 0.15864-0.40119 0.30682-0.2825 0.44999 0.09178 0.11179 0.02929 0.59795-0.08896 0.69209-0.04448 0.03465-0.24735 0.11811-0.45023 0.18414-0.31049 0.1022-0.38926 0.16605-0.49362 0.39682-0.12389 0.27675-0.14776 0.29484-1.1467 0.82458-0.61188 0.32512-1.0146 0.40336-2.252 0.43909-0.63661 0.01787-1.2463 0.01852-1.3555 4.35e-4zm5.6666-4.9462c-0.05989-0.1521-0.14299 0.26237-0.0933 0.46502 0.02799 0.11179 0.04773 0.08934 0.08722-0.1022 0.02842-0.1362 0.03081-0.29941 0.0061-0.36282zm-1.5306-1.0131c0-0.03508-0.06726-0.08194-0.14885-0.10329-0.12194-0.03182-0.13301-0.02027-0.06314 0.06385 0.09547 0.11571 0.21199 0.13728 0.21199 0.03944zm1.0415-1.6757c0.14798 0 0.3528-0.27348 0.3029-0.40423-0.03385-0.08934-0.09525-0.10569-0.24302-0.06908-0.1087 0.02659-0.20938 0.07932-0.22153 0.11593-0.01367 0.03726-0.06683 0.06712-0.11934 0.06712-0.05121 0-0.1074 0.09741-0.12433 0.21551-0.02604 0.1728-0.0039 0.21748 0.11804 0.23513 0.08223 0.01177 0.15991-0.01918 0.17271-0.06908 0.01258-0.05034 0.06488-0.0913 0.11456-0.0913zm17.521-9.6709c-0.06878-0.06385-0.07898-0.05208-0.04231 0.05056 0.02539 0.07278 0.05077 0.18762 0.0562 0.25365 0.0063 0.06668 0.02473 0.04358 0.04231-0.05034 0.01801-0.09436-8e-3 -0.20854-0.0562-0.25387zm-0.06835-0.22772c0-0.13881-0.04491-0.13881-0.09786 0-0.02322 0.06014-0.01128 0.10917 0.02799 0.10917 0.03862 0 0.06987-0.04903 0.06987-0.10917zm-11.269-0.5341c0.0011-0.1022 0.01128-0.10373 0.06878-0.01068 0.0907 0.1436 0.15948 0.06668 0.4333-0.48834 0.12281-0.24994 0.25538-0.45326 0.29357-0.45326s0.06943-0.04053 0.06791-0.09043c-0.0015-0.05034-0.08419 0.0033-0.1853 0.11811-0.23043 0.26236-0.68977 0.3358-1.0239 0.16234-0.12346-0.06385-0.27448-0.09675-0.33545-0.07344-0.10805 0.04097-0.62077-0.42231-0.62077-0.56134 0-0.03443-0.03428-0.06276-0.07681-0.06276s-0.0562-0.03225-0.03168-0.07235c0.0243-0.03988 0.01-0.07235-0.03233-0.07235-0.04166 0-0.07724 0.073-0.07768 0.16278-0.0011 0.13184-0.01432 0.14251-0.07095 0.05426-0.06032-0.0937-0.07052-0.09261-0.0716 0.01242-4.34e-4 0.06646-0.04123 0.13881-0.09113 0.1606-0.06184 0.02658-0.03927 0.07714 0.07269 0.15951 0.08896 0.06603 0.16208 0.16431 0.16208 0.21813 0 0.0547 0.04556 0.07976 0.10328 0.05753 0.06097-0.02397 0.1547 0.04249 0.23368 0.1654 0.07204 0.11288 0.17944 0.24864 0.23976 0.30181 0.05989 0.05252 0.07421 0.07867 0.03146 0.05687-0.04296-0.0207-0.07898 0.0039-0.07898 0.056 0 0.05099 0.04665 0.09305 0.10241 0.09305 0.06878 0 0.09156-0.05687 0.0703-0.17062-0.02799-0.14644-0.01063-0.16387 0.12042-0.12399 0.19528 0.05949 0.1827 0.04467 0.25777 0.3053 0.04405 0.15537 0.0371 0.23404-0.02061 0.2591-0.05924 0.02441-0.05468 0.05535 0.01801 0.10569 0.13105 0.08978 0.4396-0.0985 0.44176-0.26934zm-11.054-1.0974c0.03168-0.28416 0.06791-0.34212 0.2888-0.45282 0.32785-0.16387 0.616-0.16104 0.78459 0.0085 0.07421 0.07453 0.26059 0.15908 0.41594 0.18784 0.15405 0.0292 0.31288 0.07867 0.3528 0.11004 0.03971 0.03182 0.18573 0.07561 0.32525 0.0985 0.13886 0.02244 0.41573 0.07126 0.61383 0.10896 0.30898 0.05753 0.39056 0.04794 0.55481-0.06951 0.20135-0.14426 0.56262-0.17869 1.0022-0.0985 0.33263 0.06123 0.37711 0.0022 0.56783-0.76748 0.1879-0.75855 0.1419-1.1763-0.13453-1.2157-0.09851-0.01373-0.19593 0.02179-0.23195 0.0852-0.0933 0.16648-0.47952 0.22815-0.62576 0.10002-0.19181-0.1691-0.4461-0.22619-0.4461-0.10046 0 0.20854-0.37928 0.25866-0.56371 0.07387-0.11131-0.11179-0.12281-0.10852-0.15926 0.04903-0.03992 0.17193-0.21611 0.29309-0.21611 0.14949 0-0.04358-0.06748-0.14687-0.14993-0.22924-0.08202-0.08237-0.13084-0.19895-0.10849-0.2591 0.03081-0.08041 0.0052-0.09632-0.10285-0.06123-0.10285 0.0329-0.14364 0.0122-0.14364-0.07235 0-0.06428 0.03233-0.09784 0.07204-0.07344 0.03927 0.02441 0.07204 0.01068 0.07204-0.03182 0-0.04249-0.04969-0.07714-0.11174-0.07714-0.08679 0-0.10762-0.07278-0.09504-0.32512 0.0095-0.17869-0.0052-0.34735-0.03276-0.37459-0.02799-0.02811-0.05012-0.01177-0.05012 0.03465 0 0.04641-0.04882 0.08411-0.10762 0.08411-0.05923 0-0.10806-0.04838-0.10806-0.10852 0-0.05905 0.03233-0.10852 0.07204-0.10852 0.03992 0 0.07204-0.05426 0.07204-0.12029 0-0.09566-0.02756-0.08673-0.1419 0.04533-0.07941 0.09043-0.2441 0.18566-0.36821 0.21116l-0.22522 0.0462 0.18747 0.20266c0.10588 0.11484 0.22349 0.18043 0.27079 0.15167 0.04557-0.02876 0.06401-0.0207 0.04079 0.01656s0.08896 0.21072 0.24887 0.38527c0.24952 0.27086 0.27448 0.32556 0.1738 0.382-0.06466 0.03574-0.09851 0.09632-0.07572 0.13358 0.02322 0.03726 0.01172 0.06821-0.02647 0.06821s-0.08788-0.04838-0.11022-0.10743c-0.02322-0.06123-0.08896-0.08891-0.1521-0.06428-0.07876 0.03029-0.11131-0.0026-0.11131-0.11222 0-0.1861-0.20548-0.28568-0.29509-0.14317-0.0345 0.05579-0.06401 0.19089-0.06509 0.3005 0 0.10961-0.03341 0.19895-0.07312 0.19895-0.03927 0-0.07204-0.0255-0.07204-0.05687 0-0.03094-0.09742-0.0937-0.21611-0.13837-0.14624-0.05535-0.2172-0.13184-0.2172-0.2336 0-0.08346-0.04665-0.15167-0.10393-0.15167-0.15036 0-0.2198-0.15058-0.10393-0.22445 0.07247-0.04533 0.07529-0.06341 0.0095-0.06385-0.04969-4.36e-4 -0.09005-0.06494-0.09005-0.14208 0-0.07758-0.03341-0.16125-0.07355-0.1861-0.1367-0.0852-0.28337-0.5474-0.24106-0.76029 0.03385-0.16714 0.0015-0.24798-0.15405-0.39268-0.10697-0.10002-0.30616-0.21857-0.44133-0.26389-0.13518-0.04424-0.24584-0.11593-0.24584-0.15799 0-0.0414-0.07312-0.14731-0.16208-0.23578-0.26862-0.26171-0.41638-0.46916-0.41638-0.58357 0-0.16496-0.14147-0.1277-0.21199 0.05579-0.04817 0.12617-0.02322 0.20484 0.11131 0.34844 0.09482 0.1022 0.17271 0.23665 0.17271 0.29854 0 0.17498 0.28294 0.49531 0.43916 0.49531 0.07637 0 0.13886 0.04315 0.13886 0.09479 0 0.05273 0.14733 0.19852 0.32568 0.32556 0.32959 0.2336 0.37602 0.32883 0.25473 0.5219-0.05728 0.09152-0.09113 0.08237-0.2198-0.05644-0.08375-0.09-0.1853-0.14317-0.22609-0.11767-0.05034 0.03094-0.04882 0.07126 0.0043 0.12443 0.04296 0.04358 0.07898 0.13467 0.07898 0.20222 0 0.17128-0.36561 0.57354-0.52183 0.57354-0.09482 0-0.12823 0.05687-0.12823 0.21769 0 0.24101-0.13604 0.28786-0.31462 0.10852-0.05989-0.06014-0.1304-0.10852-0.15688-0.10852-0.11022 0-0.4678-0.30747-0.4678-0.4027 0-0.12879 0.34651-0.2214 0.44719-0.12029 0.09048 0.09043 0.57738 0.02615 0.65527-0.08673 0.08744-0.12617-0.0095-0.40423-0.19962-0.57507-0.39143-0.35062-0.55568-0.48355-0.60124-0.48529-0.02712-0.0011-0.14407-0.1314-0.26059-0.29004-0.11652-0.15908-0.25473-0.2883-0.3068-0.2883s-0.09482-0.0329-0.09482-0.07278 0.0345-0.07235 0.07789-0.07235c0.1048 0 0.0037-0.3042-0.13561-0.40641-0.0831-0.06058-0.16534-0.05317-0.33263 0.03029-0.42593 0.21225-0.47475 0.23142-0.57217 0.23142-0.05403 0-0.20179-0.05208-0.32894-0.11549-0.28229-0.14142-0.44133-0.09087-0.44133 0.14099 0 0.20898-0.08679 0.28612-0.46932 0.41861-0.3808 0.1314-0.77331 0.48464-0.72102 0.64807 0.04296 0.1362-0.36647 0.60383-0.47149 0.5389-0.03342-0.0207-0.10914 0.01177-0.16946 0.07235-0.12454 0.12508-0.32048 0.13946-0.57694 0.04097-0.23846-0.09087-0.48212-0.01765-0.48212 0.14535 0 0.16126 0.06987 0.20898 0.33697 0.22924 0.11283 0.0085 0.24518 0.0547 0.29444 0.1022 0.05923 0.05862 0.1547 0.06646 0.2888 0.02506 0.7898-0.24515 0.96576-0.25321 2.3308-0.09784 0.21763 0.02506 0.56956 0.04206 0.77982 0.0377 0.26753-0.0052 0.39403 0.02332 0.42115 0.09479 0.0217 0.05687 0.08527 0.0852 0.1419 0.06341 0.06835-0.02659 0.1022 0.01111 0.1022 0.11549 0 0.0852-0.04773 0.1728-0.10545 0.19481-0.08267 0.0329-0.08788 0.07387-0.02495 0.19743 0.21285 0.41556 0.21568 0.42929 0.11869 0.49161-0.05359 0.03399-0.14993 0.06167-0.21502 0.06276-0.06509 0-0.13822 0.05208-0.16273 0.11375-0.0243 0.06494-0.01215 0.0937 0.02973 0.06712 0.03927-0.02441 0.18118 0.07235 0.31462 0.21442 0.13452 0.14295 0.3131 0.25866 0.40054 0.25866 0.28815 0 0.80086 0.28132 0.80086 0.43887 0 0.09152 0.07356 0.17302 0.1981 0.2214 0.10957 0.04206 0.34543 0.1521 0.524 0.24428 0.45001 0.23382 0.53159 0.20941 0.57499-0.1789zm1.4225-1.3578c-0.11456-0.017-0.19029-0.06821-0.17445-0.11593 0.03233-0.09784 0.04296-0.0985 0.50382-0.01961 0.63726 0.11048 0.33198 0.23622-0.32937 0.13554zm2.5503-0.02441c0-0.10482 0.1892-0.28895 0.24215-0.23578 0.02322 0.02332 0.12433-0.01177 0.22566-0.07823 0.1879-0.12399 0.24996-0.06821 0.09569 0.08629-0.04773 0.04794-0.05772 0.08673-0.02235 0.08673 0.03493 0 0.0017 0.04838-0.07572 0.10699-0.16382 0.12443-0.46542 0.14622-0.46542 0.034zm-1.6876-0.17716c0.05403-0.13881 0.09916-0.13881 0.09916 0 0 0.06014-0.03168 0.10896-0.06987 0.10896-0.03884 0-0.05186-0.04838-0.02929-0.10896zm-3.875-0.25387c0-0.09261 0.05142-0.09261 0.10849 0 0.0243 0.04053 0.01 0.07235-0.03233 0.07235-0.04166 0-0.07616-0.03138-0.07616-0.07235zm-1.5256-1.3539c-0.0048-0.03356-0.0022-0.09196 0.0063-0.13184s0.01432-0.20702 0.01432-0.37241c0-0.23251 0.02647-0.2968 0.11912-0.28939 0.0933 0.0074 0.11391-0.04729 0.09699-0.25801-0.01649-0.20854 0.01107-0.2835 0.12867-0.34692 0.1304-0.07082 0.14841-0.06014 0.14407 0.0852-0.0026 0.09152-0.03081 0.23142-0.06205 0.31009-0.03233 0.07976-0.03081 0.21769 0.0022 0.30638 0.04556 0.12247-0.0243 0.5426-0.10762 0.64589-0.04275 0.05252-0.33566 0.09566-0.34196 0.05099zm-1.6145-0.45434c-0.06357-0.10329 0.01758-0.2214 0.15145-0.2214 0.06249 0 0.09959 0.05056 0.08527 0.12072-0.02756 0.14578-0.17163 0.20658-0.23672 0.10068zm0.39512-0.14469c0-0.04206 0.03276-0.07671 0.07247-0.07671 0.09221 0 0.09221 0.05099 0 0.10852-0.04014 0.02462-0.07247 0.01024-0.07247-0.03182zm6.0044 1.4251c-0.05923-0.05905-0.07985-0.05099-0.07985 0.03029 0 0.14469 0.09677 0.2421 0.13236 0.13358 0.0154-0.04576-0.0085-0.11963-0.05251-0.16387zm8.034-1.0129c0.10588-0.07823 0.11131-0.1229 0.03385-0.32665-0.04925-0.12922-0.11435-0.23513-0.14559-0.23513-0.03146 0-0.05685-0.0414-0.05685-0.09196 0-0.05099-0.06509-0.21377-0.14451-0.36239-0.07941-0.14862-0.14472-0.31554-0.14472-0.37132 0-0.0547-0.04925-0.14055-0.10805-0.19046-0.05967-0.04947-0.10849-0.16757-0.10849-0.26236 0-0.12508-0.04036-0.17193-0.14798-0.17193-0.0805 0-0.22891-0.08194-0.32742-0.18152-0.10003-0.10002-0.21025-0.18152-0.24475-0.18152-0.03493 0-0.12324-0.07561-0.19528-0.16757-0.17684-0.22445-0.35389-0.28307-0.46194-0.15167-0.06574 0.07867-0.06835 0.1484-0.01172 0.2676 0.04231 0.08782 0.09634 0.24145 0.11912 0.34147 0.02235 0.09959 0.06531 0.21486 0.0959 0.25539 0.11326 0.15385 0.83601 0.68729 0.93062 0.68729 0.05468 0 0.09916 0.04903 0.09916 0.10852s-0.05034 0.10896-0.11239 0.10896c-0.0907 0-0.10697 0.07932-0.09004 0.41665 0.01953 0.38309 0.03645 0.4197 0.20244 0.44149 0.09959 0.01329 0.21199 0.0547 0.24887 0.09043 0.10003 0.09697 0.42614 0.08302 0.56978-0.02332zm-6.9587-0.19895c0-0.03988-0.05121-0.07278-0.11239-0.07278-0.06184 0-0.0933 0.0329-0.06813 0.07278 0.05772 0.0937 0.18052 0.0937 0.18052 0zm0.9228-0.4635c0.28814-0.18522 0.95557-0.31336 0.95557-0.18348 0 0.0414 0.03385 0.0547 0.07529 0.02876 0.04144-0.02593 0.12346-0.0074 0.18074 0.04097 0.05924 0.04903 0.31462 0.08716 0.5789 0.08716 0.39208 0 0.50274-0.02767 0.64681-0.16387 0.21654-0.20375 0.15254-0.35694-0.23368-0.56069-0.15036-0.07932-0.45175-0.23883-0.67068-0.3565-0.42593-0.22772-0.57629-0.23033-0.87832-0.01547-0.23412 0.16714-0.42159 0.17607-0.42159 0.02136 0-0.06385-0.06726-0.13358-0.15036-0.15537-0.10285-0.02724-0.1393-0.0815-0.11478-0.17455 0.02473-0.09523-0.0039-0.1351-0.09634-0.1351-0.07269 0-0.14841-0.04097-0.16902-0.09043-0.04817-0.11811-0.33198 0.22249-0.33414 0.39943-0.0017 0.07017-0.06748 0.18348-0.14733 0.25169-0.07941 0.06908-0.14407 0.21377-0.14407 0.32556 0 0.1107-0.02973 0.20157-0.06423 0.20157-0.12194 0-0.14776 0.32294-0.04036 0.48834 0.15254 0.23164 0.65896 0.2275 1.0276-0.0094zm1.2671-1.6666c0.02126-0.05535 0.0043-0.13402-0.0371-0.17564-0.09634-0.09741-0.41898 0.03988-0.41898 0.17825 0 0.13031 0.4064 0.1277 0.45609-0.0026zm-5.2645-3.0571c0.17054-0.13031 0.41378-0.13772 0.53398-0.01656 0.06206 0.06232 0.10545 0.06603 0.14082 0.01286 0.02864-0.04249 0.10437-0.09675 0.17011-0.12138 0.07572-0.02811 0.13192-0.1569 0.15579-0.35694 0.02061-0.17237 0.09525-0.48355 0.16642-0.69209 0.10806-0.31663 0.16534-0.38679 0.3502-0.43408 0.19398-0.04947 0.16902-0.06058-0.21285-0.09305-0.25278-0.02136-0.44545-0.0074-0.46303 0.03465-0.05077 0.12247-0.18747 0.23404-0.34955 0.28525-0.16273 0.05164-0.276 0.27936-0.20027 0.4027 0.04969 0.07932-0.08419 0.37132-0.20808 0.45391-0.04339 0.02985-0.1521 0.05382-0.2415 0.0547-0.16794 0.0011-0.21763 0.10329-0.09005 0.18239 0.10849 0.06755 0.08592 0.18087-0.03645 0.18087-0.05924 0-0.10806-0.03247-0.10806-0.07235s-0.08115-0.07235-0.18074-0.07235-0.18074 0.03247-0.18074 0.07235 0.04882 0.07235 0.10806 0.07235c0.05989 0 0.10914 0.0499 0.10914 0.10896-8.67e-4 0.14142 0.3489 0.14034 0.5368-0.0022zm0.4741-0.87775c0-0.08411 0.04925-0.19481 0.10957-0.24515 0.17054-0.1436 0.18703-0.05165 0.03168 0.18566-0.12476 0.19024-0.1406 0.19721-0.14125 0.05949zm-1.3051 0.19568c0.08484-0.05382 0.08744-0.09741 0.0154-0.23469-0.05251-0.10111-0.07204-0.11331-0.04882-0.0329 0.0243 0.08193-0.01107 0.17455-0.08744 0.23404-0.14255 0.10765-0.04188 0.13685 0.12086 0.03356zm2.5792-0.2591c0.06249-0.16343-0.11239-0.3491-0.23303-0.24798-0.07638 0.06232-0.07789 0.10852-0.01 0.21813 0.10415 0.16779 0.18682 0.17782 0.24302 0.02985zm2.8435-0.5389c0-0.0985-0.12758-0.16278-0.17315-0.08825-0.0434 0.07017 0.01909 0.1569 0.11283 0.1569 0.03341 0 0.06032-0.03073 0.06032-0.06864zm-2.1411-0.33079c0.05294-0.13881 0.01584-0.13881-0.09851 0-0.05229 0.06276-0.0588 0.10852-0.01627 0.10852 0.04036 4.36e-4 0.09156-0.04838 0.11478-0.10852zm-1.38-0.35389c0.05989-0.08825 0.04188-0.84223-0.02018-0.84223-0.0217 0-0.13821 0.09152-0.2595 0.20266-0.28598 0.26237-0.3719 0.57398-0.19333 0.70865 0.13626 0.10286 0.38036 0.06777 0.47301-0.06908zm2.2208 0.06646c0-0.09261-0.20396-0.25692-0.32069-0.25692-0.07355 0-0.04275 0.18719 0.04622 0.27566 0.11977 0.12072 0.27448 0.10961 0.27448-0.01874zm-1.7651-1.1708c0.27382-0.21007 0.32482-0.3905 0.10849-0.3905-0.14147 0-0.36648 0.1776-0.36648 0.28939 0 0.03356-0.01953 0.11331-0.04339 0.17564-0.06249 0.16322 0.01649 0.1436 0.30138-0.07453zm2.2349-0.17346c-0.0243-0.03944-0.09959-0.07017-0.16686-0.06755-0.10024 0.0048-0.0959 0.01656 0.02235 0.06755 0.19333 0.08411 0.1955 0.08411 0.14451 0zm0.36083-0.39115c0-0.13467-0.04188-0.15167-0.36561-0.15167-0.32742 0-0.363 0.01482-0.33805 0.14469 0.02257 0.1192 0.08831 0.14687 0.36561 0.15276 0.29791 0.0059 0.33805-0.01111 0.33805-0.14578zm14.155-1.3406c0.02191-0.03465-0.0063-0.1022-0.06184-0.1484-0.08332-0.06908-0.09525-0.05753-0.06292 0.06385 0.04209 0.1643 0.06596 0.17978 0.12476 0.08455zm-11.581-2.1307c-0.07095-0.07126-0.07985-0.06232-0.04036 0.04053 0.02712 0.07191 0.06748 0.11179 0.08961 0.08934 0.02278-0.02179 0-0.08085-0.04925-0.12988zm8.4439-2.0386c0-0.01438-0.05663-0.07191-0.12606-0.12661-0.11435-0.09-0.11695-0.08716-0.0269 0.02767 0.09352 0.12007 0.15297 0.15908 0.15297 0.09893zm-5.202-2.9789c0-0.0547-0.89351-0.32512-0.93344-0.28198-0.04383 0.04794-0.02018 0.05905 0.50013 0.24362 0.2888 0.10286 0.4333 0.11549 0.4333 0.03835zm-1.4674 37.974c-0.01584-0.02876-0.0332-0.18522-0.03819-0.348-0.0078-0.24145 0.03146-0.33406 0.21047-0.50643 0.19116-0.18305 0.21329-0.24472 0.17423-0.47679-0.05186-0.30464 0.1176-0.7154 0.29357-0.7154 0.20092 0 0.75964-0.30813 0.9573-0.52669 0.79609-0.88625 0.80195-0.89169 0.9074-0.77773 0.14082 0.14949 0.20136 0.69732 0.08744 0.79276-0.04947 0.04097-0.11131 0.05317-0.13735 0.02768-0.02647-0.02658-0.04773 0.03944-0.04773 0.14578 0 0.10678-0.03276 0.19372-0.07247 0.19372-0.03992 0-0.07204 0.03181-0.07204 0.07126 0 0.08411-0.48321 0.86816-0.90328 1.4665-0.2198 0.31379-0.36604 0.44214-0.60927 0.53519-0.36691 0.14142-0.70756 0.19481-0.75009 0.11811zm3.8518-1.8248c0-0.04249 0.03211-0.07714 0.07204-0.07714 0.09265 0 0.09265 0.05143 0 0.10852-0.03971 0.02462-0.07204 0.01111-0.07204-0.03138zm-17.123-4.4955c0-0.04249 0.03342-0.07714 0.07247-0.07714 0.0933 0 0.0933 0.05143 0 0.10852-0.03949 0.02506-0.07247 0.01111-0.07247-0.03138zm-12.115-0.63935c-0.80303-1.2591-1.8005-3.5319-2.2852-5.2063-0.77135-2.6685-1.0606-5.7169-0.77808-8.2127 0.1176-1.0349 0.24584-1.0991 0.22609-0.11222-0.03558 1.8252-0.02235 2.4881 0.05294 2.579 0.04405 0.05273 0.1176 0.32403 0.1636 0.60231 0.04557 0.27871 0.11283 0.56243 0.14885 0.63151 0.03558 0.06908 0.06618 0.28198 0.06683 0.47134 0.0011 0.19046 0.046 0.54086 0.10068 0.781 0.05511 0.23948 0.1202 0.59795 0.14559 0.79799 0.0805 0.63957 0.67371 2.0854 1.0573 2.5803 0.11066 0.14469 0.35172 0.57703 0.53398 0.96186 0.18335 0.38461 0.36083 0.6995 0.39577 0.6995 0.07573 0 0.13192 0.1362 0.26493 0.63848 0.14733 0.55393 0.12823 0.71497-0.1176 1.022l-0.2198 0.27457 0.18855 0.57354c0.20917 0.63848 0.39143 1.3354 0.34912 1.3354-0.0154-4.36e-4 -0.14733-0.18784-0.29357-0.41752zm29.165-4.586c0.14255-0.09261 0.30941-0.09261 0.25321 0-0.0243 0.03944-0.11586 0.07235-0.20287 0.07126-0.12867-4.36e-4 -0.13822-0.01395-0.05034-0.07126zm-4.19-0.47788c0-0.1277 0.15579-0.10525 0.20027 0.02942 0.01584 0.04729-0.02257 0.08629-0.08592 0.08629-0.06249-2.18e-4 -0.11435-0.05295-0.11435-0.11571zm-21.929-2.645c-0.02604-0.04249-0.03016-0.09479-0.0091-0.11593 0.05142-0.05208 0.19224 0.03944 0.19224 0.12443 6.51e-4 0.09305-0.12433 0.08716-0.18313-0.0085zm0.25582-0.28568c0-0.09327 0.05142-0.09327 0.10849 0 0.0243 0.03944 0.01063 0.07278-0.03233 0.07278-0.04166 0-0.07616-0.0329-0.07616-0.07278zm-0.37928-0.46873c-0.14516-0.19939-0.15687-0.25648-0.05446-0.25648 0.03927 0 0.07204 0.03792 0.07204 0.08477s0.05446 0.14513 0.12021 0.21813c0.06574 0.07278 0.09004 0.13096 0.05403 0.13031-0.03602-0.0017-0.12238-0.08041-0.19181-0.17673zm35.471-2.1861c-0.02864-0.02876-0.05034-0.13685-0.04839-0.23905l0.0048-0.18762 0.06922 0.17455c0.07594 0.18936 0.0601 0.33842-0.0256 0.25212zm-32.087-0.38091c-0.03124-0.05056-0.03645-0.11114-0.0128-0.1351 0.06466-0.06494 0.13518 0.03094 0.10003 0.13554-0.02452 0.07344-0.04166 0.07344-0.08723-4.36e-4zm0.50078-0.12595c0.10393-0.10329 0.20504-0.17128 0.22566-0.15167 0.05663 0.05687-0.20917 0.34081-0.31831 0.34081-0.05533-4.36e-4 -0.01649-0.0791 0.09265-0.18915zm-0.75964-0.17411c0-0.03944 0.05077-0.07235 0.11283-0.07235s0.09265 0.0329 0.06791 0.07235c-0.05793 0.09479-0.18074 0.09479-0.18074 0zm0.50577-1.6672c0-0.09261 0.05142-0.09261 0.10849 0 0.0243 0.03988 0.01 0.07235-0.03168 0.07235-0.04231 0-0.07681-0.03247-0.07681-0.07235zm-1.0838-2.7557c0-0.09305 0.05142-0.09305 0.10849 0 0.0243 0.03944 0.01063 0.07278-0.03168 0.07278-0.04296 0-0.07681-0.0329-0.07681-0.07278zm-0.39989-0.58378c-0.06574-0.10743-0.01324-0.14622 0.1022-0.07344 0.06249 0.0377 0.06987 0.07562 0.02126 0.10525-0.04079 0.02571-0.09655 0.01133-0.12346-0.03182zm-7.1741-0.6496c0-0.09959 0.01649-0.14055 0.03645-0.09043 0.01953 0.0499 0.01953 0.1314 0 0.18152-0.02018 0.0499-0.03645 0.0096-0.03645-0.09109zm0.04491-0.66006c-0.05359-0.14055 0.09048-0.78949 0.17597-0.78949 0.0588 0 0.0217 0.31924-0.08592 0.72238-0.03493 0.13293-0.05815 0.14992-0.09005 0.06712zm0.81063-2.6027c0-0.03944 0.03233-0.07235 0.07204-0.07235s0.07204 0.0329 0.07204 0.07235c0 0.03988-0.03233 0.07278-0.07204 0.07278s-0.07204-0.0329-0.07204-0.07278zm0.21611-0.40161c0-0.09043 0.23043-0.47875 0.26319-0.44519 0.03927 0.03879-0.1712 0.48529-0.22891 0.48529-0.01844-6.54e-4 -0.03428-0.0183-0.03428-0.0401zm14.957-0.48158c-0.0011-0.06821 0.03276-0.14469 0.07573-0.17084 0.1265-0.07932 0.14516 0.0044 0.03276 0.15319-0.09308 0.12312-0.10632 0.12465-0.10849 0.01765zm-14.668-0.1229c0-0.03988 0.03276-0.09261 0.07247-0.11702 0.03927-0.02506 0.07204-0.01286 0.07204 0.02724s-0.03276 0.09305-0.07204 0.11767c-0.03949 0.02441-0.07247 0.0122-0.07247-0.02789zm14.046-0.73349c0-0.07976 0.04296-0.14578 0.09525-0.14578 0.07312 0 0.0779 0.03465 0.01801 0.14578-0.09699 0.1813-0.11326 0.1813-0.11326 0zm-9.3244-0.45326c0.0085-0.0499 0.03927-0.1314 0.07052-0.18152 0.03602-0.05796 0.01541-0.09087-0.0562-0.09087-0.06206 0-0.11283-0.04729-0.11283-0.10634 0-0.06864 0.04188-0.09 0.11912-0.05949 0.1202 0.0462 0.11652-0.04576-0.02061-0.5097-0.02756-0.09152 0.0069-0.1436 0.11174-0.17084 0.0831-0.02179 0.15102-0.06167 0.15102-0.08891 0-0.02659 0.05837-0.05317 0.13127-0.05796 0.2198-0.017 0.73729-0.26868 0.7119-0.34692-0.01324-0.03988-0.09851-0.07758-0.1892-0.08193-0.19224-0.01002-0.30572-0.15799-0.25278-0.32883 0.02061-0.06646 0.0037-0.14251-0.03754-0.16801-0.04188-0.02615-0.07529 0.01329-0.07529 0.08891 0 0.07453-0.04773 0.19852-0.10588 0.27609-0.16577 0.22031-0.13887-0.0292 0.03385-0.31445 0.19875-0.32621 0.18226-0.42515-0.08115-0.47832-0.35498-0.07126-0.37342-0.05644-0.161 0.12661 0.19441 0.16801 0.1955 0.17607 0.07464 0.36282-0.06835 0.10482-0.17271 0.19046-0.23086 0.19046-0.0588 0-0.10697 0.0292-0.10697 0.06428s-0.06618 0.0815-0.14733 0.10264c-0.08007 0.02136-0.14082 0.06603-0.13409 0.09959 0.03124 0.1606-0.10957 0.53192-0.20136 0.53192-0.05728 0-0.08636 0.02876-0.06509 0.06276 0.02126 0.03465 0.12823 0.04838 0.23846 0.03182 0.18335-0.0292 0.19007-0.02245 0.07464 0.07191-0.06943 0.05644-0.1265 0.14426-0.1265 0.19372 0 0.11331-0.34586 0.03726-0.51163-0.11222-0.06206-0.05644-0.16946-0.10264-0.23737-0.10264-0.10328 0-0.10957-0.02506-0.04123-0.15385 0.04513-0.08455 0.14407-0.16975 0.21936-0.19002 0.07529-0.01961 0.13713-0.06646 0.13713-0.10438 0-0.03661-0.02756-0.05099-0.0614-0.02985-0.03385 0.0207-0.09851-0.04249-0.14299-0.14099-0.04448-0.09893-0.10957-0.17869-0.14559-0.17869-0.10914 0-0.44242 0.29418-0.42484 0.37503 0.0091 0.04249-0.02973 0.09414-0.08527 0.1144-0.07052 0.02615-0.08744 4.35e-4 -0.05663-0.08085 0.02539-0.06537 0.01367-0.11854-0.0243-0.11854s-0.06987-0.05426-0.06987-0.12072c0-0.11114-0.0095-0.11114-0.13236 0-0.07247 0.06646-0.16686 0.12072-0.20873 0.12072-0.04231 0-0.23629 0.1436-0.4307 0.31859-0.29032 0.26171-0.39034 0.31183-0.5572 0.28045-0.16165-0.03094-0.23954 0.0037-0.3808 0.17084l-0.17792 0.20963 0.12715-0.23404c0.06987-0.1277 0.40575-0.60754 0.74532-1.0652 3.2071-4.3192 7.8845-7.2922 13.123-8.3408 2.0426-0.40967 4.4964-0.57943 5.7121-0.39682 0.35064 0.05274 0.56327 0.10743 0.47149 0.1229-0.09222 0.01482-0.1853 0.07344-0.207 0.13031-0.02322 0.06058-0.13887 0.10264-0.28034 0.10264-0.26428 0-0.39837 0.1144-0.19593 0.16757 0.10588 0.02811 0.10241 0.03465-0.02061 0.0414-0.08115 0.0052-0.18638 0.04729-0.23368 0.09479-0.0588 0.05862-0.54288 0.09196-1.5494 0.10525-1.7438 0.02397-1.8647 0.03726-2.3716 0.26237-0.21611 0.09566-0.56089 0.19416-0.76658 0.21857-0.20613 0.02441-0.43395 0.0767-0.50642 0.11658-0.07204 0.03944-0.22783 0.09261-0.34478 0.11811-0.15796 0.03356-0.18638 0.06167-0.11131 0.10808 0.05511 0.03399 0.1265 0.04729 0.15796 0.02767 0.03081-0.01918 0.17054-0.0037 0.30984 0.03465 0.1521 0.04249 0.26905 0.04358 0.294 0.0044 0.02278-0.03661 0-0.06646-0.04969-0.06646-0.05728 0-0.06574-0.02506-0.02322-0.06646 0.12346-0.11963 0.57325-0.11332 0.74749 0.0092 0.15731 0.1107 0.15948 0.12181 0.03341 0.18675-0.13453 0.06973-0.63249 0.18936-1.1187 0.26716-0.19702 0.03247-0.27491 0.0852-0.30572 0.21007-0.03927 0.15646-0.07833 0.16801-0.5674 0.16801-0.56306 0-1.2279 0.15428-1.1882 0.27609 0.03276 0.09959 0.39728 0.13728 0.50534 0.05208 0.29444-0.23404 1.0304-0.28045 0.94602-0.05905-0.0434 0.11375 0.16165 0.21769 0.22566 0.1144 0.02322-0.03835 0.1048-0.06973 0.1827-0.06973 0.08006 0 0.14038-0.0499 0.14038-0.11658 0-0.07714 0.03927-0.1022 0.11391-0.07278 0.06314 0.02397 0.16273 0.04424 0.22197 0.04424 0.09373 0 0.09373 0.01373-0.0033 0.1107-0.17597 0.17673-0.07464 0.29854 0.22045 0.26389 0.18074-0.02136 0.24518-0.0052 0.2109 0.05099-0.03428 0.05622 0.05403 0.08193 0.28185 0.08193 0.22783 0 0.34434 0.03399 0.37342 0.10808 0.02278 0.05949 0.08679 0.10896 0.1419 0.10896 0.09005 0 0.13127 0.08891 0.08267 0.17825-0.01 0.01809 0.046 0.07976 0.12389 0.13663 0.12194 0.08934 0.12975 0.13031 0.05663 0.29157-0.04708 0.1022-0.16534 0.20702-0.26211 0.23142l-0.17662 0.04445 0.15579 0.1569c0.08636 0.08629 0.22718 0.16278 0.31353 0.17084 0.08636 0.0074 0.25799 0.06537 0.38145 0.12922 0.1764 0.09152 0.21871 0.15581 0.19962 0.3005-0.01324 0.10111-0.07095 0.21377-0.12823 0.24951-0.07833 0.05055-0.08115 0.06646-0.0095 0.06712 0.05186 4.36e-4 0.07421 0.03465 0.04969 0.07453-0.0243 0.03944 0.0063 0.07235 0.06791 0.07235 0.06249 0 0.11283 0.04903 0.11283 0.10852 0 0.05905-0.04448 0.10852-0.09959 0.10852-0.15102 0-0.76766 0.2883-0.76766 0.35912 0 0.03465-0.07312 0.04838-0.16273 0.03247-0.08961-0.01656-0.12194-0.01177-0.07247 0.0122 0.06618 0.03182 0.06943 0.07975 0.01215 0.18828-0.04296 0.07976-0.09699 0.12661-0.11977 0.10373-0.02278-0.02244-0.0779 0.0092-0.12238 0.07082-0.04513 0.06123-0.13995 0.12029-0.21199 0.13096-0.15319 0.02244-0.26384 0.17673-0.21568 0.30159 0.02907 0.07671-0.12021 0.14905-0.37298 0.18152-0.03927 0.0052-0.1176 0.04729-0.17163 0.09305-0.05555 0.04533-0.14516 0.08346-0.19875 0.08411-0.11174 0.0011-0.67654 0.52822-0.67654 0.63194 0 0.03661-0.06943 0.04576-0.15405 0.01918-0.09807-0.03181-0.1367-0.02179-0.10588 0.02659 0.03754 0.06167-0.52812 0.21072-0.67849 0.17825-0.62511-0.13249-0.87572-0.14142-1.4997-0.05579-0.25538 0.03574-0.41204 0.02506-0.48104-0.03247-0.07941-0.06603-0.161-0.06058-0.3617 0.02332-0.14255 0.05949-0.2595 0.13837-0.2595 0.17389 0 0.03508-0.10111 0.06821-0.22522 0.07191-0.12346 0.0037-0.44502 0.1229-0.71451 0.26433-0.5789 0.30595-0.68717 0.32229-0.61448 0.09566 0.02864-0.09 0.0588-0.26716 0.06835-0.3942 0.02061-0.29527 0.26167-0.60972 0.92758-1.2072 0.62294-0.56025 1.4976-1.0176 1.4976-0.78361 0 0.034 0.08202 0.04685 0.1827 0.02768 0.17011-0.03291 0.17315-0.04206 0.05403-0.1351-0.12238-0.09523-0.12129-0.10525 0.01649-0.21377 0.07941-0.06276 0.23303-0.10155 0.34174-0.08564 0.14516 0.0207 0.20982-0.0085 0.24041-0.1059 0.02495-0.07976 0.2914-0.2506 0.6505-0.4197 0.69867-0.32665 0.97944-0.56548 0.92215-0.78535-0.03125-0.11702 0.02322-0.17934 0.25582-0.29898 0.16208-0.08302 0.31939-0.14578 0.3502-0.13881 0.03125 7e-3 0.11239-0.0122 0.18074-0.04249 0.0805-0.03508 0.21763 0.0033 0.38665 0.10743 0.21134 0.13096 0.27448 0.1436 0.32264 0.06494 0.13301-0.21595-0.4396-0.36326-1.6464-0.42231-0.21459-0.01111-0.20548-0.16387 0.02495-0.43844 0.1393-0.16648 0.15883-0.22249 0.07638-0.22249-0.06032 0-0.13084 0.03399-0.15731 0.07605-0.03124 0.05056-0.11022 0.03465-0.23303-0.04533-0.1636-0.10743-0.2441-0.11222-0.66634-0.03617-0.26384 0.04729-0.57629 0.14949-0.69237 0.22663-0.11717 0.07758-0.27079 0.14055-0.34282 0.14142-0.07204 0-0.11066 0.0329-0.08636 0.07278 0.07464 0.12072 0.32633 0.08085 0.56371-0.08825 0.24627-0.17607 1.0871-0.27827 1.2168-0.14796 0.13127 0.13184-0.28034 0.62083-0.70452 0.83744-0.21763 0.11114-0.41486 0.24994-0.43699 0.30813-0.02213 0.05818-0.08592 0.1059-0.14147 0.1059-0.05511 0-0.10176 0.04053-0.10285 0.09043-0.0022 0.09893-0.57803 0.41708-0.75486 0.41708-0.05989 0-0.19875 0.10438-0.30767 0.23186-0.46042 0.53672-0.50382 0.56548-0.82104 0.55328l-0.30355-0.01177 0.22783-0.20375c0.12498-0.11288 0.22783-0.22249 0.22783-0.24472 0-0.07605-0.31245 0.12879-0.53919 0.35432-0.12563 0.12443-0.35064 0.26389-0.50013 0.30856-0.18812 0.05644-0.248 0.05753-0.19441 0.0044 0.13453-0.13467 0.08419-0.22249-0.05446-0.09675-0.22088 0.20048-0.24692 0.1351-0.07095-0.17978 0.09157-0.16496 0.30247-0.4112 0.4678-0.54805 0.16577-0.13663 0.3348-0.34474 0.37559-0.46241 0.0434-0.1229 0.1547-0.24428 0.26384-0.28568 0.24367-0.09305 0.25169-0.09196 0.25169 0.03879 0 0.15167 0.21568 0.22401 0.29509 0.09893 0.04556-0.07191 0.06401-0.07496 0.06509-0.01002 4.34e-4 0.04947 0.03645 0.09043 0.08115 0.09043 0.04556 0 0.06358-0.06428 0.04188-0.14905-0.02799-0.10743 0.0052-0.16605 0.12129-0.21007 0.08744-0.03356 0.20287-0.11331 0.25647-0.17716 0.05294-0.06341 0.17315-0.11658 0.26753-0.11658 0.09482 0 0.1712-0.0292 0.1712-0.06494 0-0.03726-0.11174-0.0377-0.27079-0.0011-0.14841 0.03574-0.40683 0.04533-0.57217 0.02136-0.2595-0.03617-0.34847-0.01002-0.63726 0.19002-0.18486 0.12704-0.35758 0.20963-0.38448 0.18239-0.02756-0.02724 0.0095-0.09196 0.08115-0.14535 0.08853-0.06494 0.10437-0.11222 0.04969-0.14622-0.12867-0.07976 0.1419-0.33733 0.30095-0.28612 0.19484 0.06232 0.29878-0.02876 0.17488-0.15276-0.05728-0.05753-0.13452-0.10438-0.17206-0.10438-0.03819 0-0.10914-0.04903-0.15839-0.10852-0.11326-0.13728-0.48581-0.13881-0.72253-0.0033-0.09959 0.05687-0.2914 0.15428-0.42636 0.21704-0.13561 0.06232-0.38296 0.23622-0.5509 0.38527-0.16838 0.1484-0.44177 0.38047-0.60862 0.51493-0.16686 0.13445-0.33805 0.32033-0.37971 0.41229s-0.17597 0.20898-0.29769 0.26019c-0.12194 0.05056-0.32048 0.17869-0.44176 0.28416-0.12194 0.1059-0.31418 0.24101-0.42853 0.30115-0.16642 0.08564-0.18486 0.11658-0.09048 0.1521 0.06466 0.02549 0.11804 0.01373 0.11804-0.02506 0-0.0377 0.03385-0.07017 0.07638-0.07017s0.19593-0.0815 0.34282-0.18196c0.14733-0.10002 0.27816-0.1484 0.2914-0.10852 0.06466 0.19416 0.76593-0.03508 1.0419-0.34212 0.06943-0.07714 0.19962-0.13402 0.2888-0.12617 0.08961 0.0081 0.22783-0.0207 0.3068-0.06385 0.16838-0.09152 0.62446-0.26171 0.70604-0.26324 0.03081-4.36e-4 0.0063 0.07562-0.05446 0.16866-0.06032 0.09261-0.0933 0.1861-0.0716 0.20811 0.02126 0.02135-0.07638 0.1399-0.21611 0.26389-0.14082 0.12334-0.25582 0.25801-0.25582 0.29854 0 0.03988-0.12129 0.12443-0.2697 0.18719-0.28598 0.11963-0.5969 0.37503-0.5969 0.49096 0 0.03879 0.14516 0.05273 0.34109 0.03029 0.29075-0.0329 0.32264-0.02506 0.21459 0.0547-0.12454 0.09152-0.69758 0.60863-1.2109 1.0939-0.14255 0.13402-0.30138 0.37459-0.35432 0.53366-0.05251 0.16016-0.11912 0.27566-0.14776 0.25801-0.02973-0.01809-0.09265 0.06167-0.14038 0.1776-0.12823 0.31183-0.53984 0.66877-0.64789 0.56069-0.06509-0.06428-0.07421-0.05644-0.04036 0.03399 0.03341 0.08564-0.0154 0.13946-0.17597 0.19525-0.12194 0.04249-0.22088 0.12813-0.22088 0.19002 0 0.06232-0.03927 0.11222-0.08679 0.11222-0.06401 0-0.06574 0.02136-0.0052 0.08194 0.10285 0.10329 0.03819 0.26978-0.18595 0.47875-0.09742 0.09043-0.15102 0.16496-0.11977 0.16496s-0.03081 0.0815-0.13778 0.18152c-0.21394 0.19525-0.32785 0.22924-0.30659 0.08782zm-0.78936-3.0638c0.0345-0.14535 0.02712-0.19307-0.02126-0.14535-0.03927 0.03944-0.09525 0.17019-0.12281 0.28939-0.0345 0.14578-0.02647 0.19372 0.02126 0.14578 0.03971-0.03988 0.09525-0.17019 0.12281-0.28982zm-0.19268-0.14949c0.0095-0.107-0.01432-0.16648-0.05663-0.14099-0.08375 0.05273-0.09742 0.32665-0.01475 0.32665 0.03103-6.54e-4 0.06336-0.08368 0.07138-0.18566zm0.77483-0.68424c0.15362-0.17019 0.02756-0.19852-0.1393-0.03138-0.12758 0.1277-0.1419 0.17607-0.05251 0.17607 0.03407 0 0.11977-0.06537 0.19181-0.14469zm0.43395-0.6533c0.05663-0.09196-0.03862-0.09196-0.18074 0-0.09373 0.06014-0.09156 0.07082 0.01367 0.07191 0.06748 4.36e-4 0.14212-0.0316 0.16707-0.07191zm0.70301-0.45064c0.12454-0.11658 0.18964-0.2336 0.15839-0.2835-0.03493-0.05644-0.0217-0.06646 0.03971-0.02811 0.06206 0.0377 0.08158 0.02397 0.05923-0.04358-0.04296-0.12879-0.14668-0.10852-0.23846 0.04729-0.03927 0.06755-0.161 0.21442-0.27079 0.32621-0.10914 0.11222-0.19875 0.24319-0.19875 0.29091 2.17e-4 0.09414 0.07182 0.04554 0.45066-0.30922zm6.3767-1.5794c-0.02495-0.03988-0.07724-0.07235-0.1176-0.07235-0.03927 0-0.05186 0.03247-0.02756 0.07235s0.07724 0.07278 0.11717 0.07278c0.03992 0 0.05251-0.0329 0.02799-0.07278zm2.986-0.86881c0.10393 0.0011 0.10545 0.01068 0.01172 0.07126-0.09438 0.06123-0.0933 0.07082 0.01 0.07126 0.06357 0.0011 0.15514-0.04467 0.20244-0.10155 0.06683-0.0815 0.0562-0.11114-0.05403-0.14687-0.19007-0.06058-0.37602 0.02288-0.3693 0.16648 0.0037 0.07605 0.01909 0.08564 0.04188 0.02876 0.02083-0.05056 0.09113-0.09 0.15731-0.08934zm-2.1368-0.65395c0.06097 0 0.12932-0.04903 0.1521-0.10852 0.0562-0.14578-0.0154-0.13663-0.30095 0.03726-0.14082 0.08629-0.21719 0.17934-0.18747 0.22815 0.03558 0.05687 0.0779 0.04576 0.13778-0.03726 0.0486-0.06581 0.13756-0.11963 0.19853-0.11963zm0.81193-0.65221c0.02495-0.03988 0.0128-0.07278-0.02756-0.07278-0.03971 0-0.09222 0.0329-0.11717 0.07278-0.02495 0.03944-0.01172 0.07235 0.02799 0.07235s0.09243-0.0329 0.11673-0.07235zm0.61448-0.58052c0-0.03988-0.04882-0.07278-0.10806-0.07278-0.05923 0-0.10805 0.0329-0.10805 0.07278 0 0.03944 0.04882 0.07235 0.10805 0.07235 0.05924 0 0.10806-0.0329 0.10806-0.07235zm-1.7332 8.5182c0-0.06123-0.04925-0.12988-0.10849-0.15276-0.14038-0.05426-0.14038-0.17084 0-0.17084 0.05923 0 0.10849-0.04947 0.10849-0.10852 0-0.06014-0.0345-0.10896-0.07724-0.10896-0.04188 0-0.05663-0.03094-0.03341-0.06908s0.0959-0.04903 0.161-0.02397c0.09265 0.03574 0.10697 0.01656 0.06791-0.08782-0.05663-0.14731 0.05359-0.25103 0.26905-0.25278 0.09959-0.0011 0.12454 0.03617 0.09699 0.1436-0.02907 0.11179-0.0022 0.14578 0.11804 0.14622 0.08527 0 0.28034 0.034 0.4307 0.07671 0.25278 0.07082 0.27339 0.09566 0.25321 0.30704-0.02907 0.3005-0.25365 0.4112-0.83536 0.41294-0.35758-6.54e-4 -0.45088-0.02397-0.45088-0.11179zm9.9451-0.5901c-0.09959-0.09959-0.04275-0.24145 0.09634-0.24145 0.09634 0 0.14472 0.04838 0.14472 0.14535 2.16e-4 0.13924-0.14147 0.19568-0.24106 0.0961zm-3.9397-2.0355c-0.04513-0.0852-0.08158-0.20527-0.08158-0.26803 0-0.06167-0.03276-0.11331-0.07247-0.11331-0.08484 0-0.09482-0.28677-0.01324-0.41556 0.03276-0.05165 0.15362-0.07671 0.28771-0.05949 0.12715 0.01656 0.23151 4.36e-4 0.23151-0.03399 0-0.06755 0.48581-0.04249 0.55676 0.02876 0.07095 0.07017-0.14038 0.27195-0.24323 0.23186-0.13301-0.05099-0.12238 0.10111 0.01844 0.25648 0.13453 0.14949 0.0831 0.27762-0.10588 0.2628-0.09005-7e-3 -0.12238-0.05208-0.09959-0.14055 0.05837-0.22249-0.08267-0.14208-0.24323 0.13837-0.14711 0.25692-0.15557 0.26128-0.2352 0.11266zm-9.7099-0.97145c0.04882-0.04947 0.10654-0.07126 0.12867-0.04903s-0.01692 0.06276-0.08896 0.09c-0.1022 0.0401-0.11001 0.0316-0.03971-0.04097zm14.973-0.10089c-0.13279-0.16016-0.05728-0.17869 0.09178-0.02245 0.06921 0.07344 0.09786 0.13293 0.06292 0.13293-0.03537 0-0.10502-0.04947-0.1547-0.11048zm-3.2271-0.0081c-0.05967-0.02441-0.04969-0.07278 0.03602-0.15951 0.08549-0.08673 0.14689-0.1022 0.20439-0.0499 0.04557 0.04097 0.06574 0.10329 0.04448 0.13837-0.0217 0.03508 0.0063 0.04838 0.0614 0.0292 0.06358-0.02179 0.09222-0.11658 0.07789-0.2628-0.02235-0.2214-0.01692-0.22619 0.17423-0.15319 0.14255 0.05469 0.21199 0.05273 0.24866-0.0081 0.03645-0.06014 0.06509-0.06123 0.10068-0.0033 0.02756 0.04424 0.01324 0.08041-0.03146 0.08041s-0.06075 0.0329-0.03602 0.07278c0.02495 0.03944 0.0022 0.07278-0.04969 0.07344-0.06878 0.0011-0.06509 0.02027 0.01345 0.07126 0.08831 0.05753 0.07876 0.07082-0.04882 0.07191-0.08549 4.36e-4 -0.17228-0.03988-0.19246-0.09-0.02322-0.05644-0.03862-0.0462-0.04231 0.02876-0.0078 0.17433-0.31266 0.26171-0.56045 0.1606zm-13.213-0.74261c0.0217-0.03508 0.11283-0.08237 0.20287-0.10525 0.15796-0.03944 0.15883-0.03661 0.02387 0.06385-0.15579 0.11636-0.28771 0.14077-0.22674 0.0414zm1.8476-0.73414c0.1419-0.09196 0.23781-0.09196 0.18074 0-0.0243 0.03944-0.09916 0.07235-0.16642 0.07191-0.10588-0.0013-0.1074-0.0109-0.01432-0.07191zm0.36127-0.36239c0-0.03944 0.04925-0.07278 0.10849-0.07278 0.05923 0 0.10805 0.03356 0.10805 0.07278s-0.04882 0.07278-0.10805 0.07278c-0.05967 2.18e-4 -0.10849-0.03334-0.10849-0.07278zm6.4496-1.2767c0.0243-0.02397 0.08636-0.02659 0.13886-0.0059 0.05663 0.02288 0.04036 0.04053-0.04405 0.04358-0.07638 0.0037-0.11869-0.01373-0.09482-0.0377zm-0.48429-0.09893c-0.07681-0.02724-0.10914-0.06603-0.07204-0.08629 0.0959-0.05317 0.72145-0.07714 0.67068-0.02615-0.08853 0.08891-0.4652 0.15973-0.59864 0.11244zm0.48256-0.33994c-0.15405-0.06232-0.09959-0.18087 0.07247-0.15646 0.08896 0.01286 0.15405 0.05644 0.14407 0.09566-0.02148 0.08825-0.09569 0.10852-0.21654 0.0608zm-1.0291-0.04859c0-0.02288 0.07355-0.12181 0.16425-0.21857 0.11869-0.1277 0.26797-0.18936 0.53333-0.21769 0.20352-0.02179 0.45457-0.06123 0.55828-0.08716 0.14038-0.03574 0.18855-0.01961 0.18855 0.05905 0 0.14469-0.18964 0.2968-0.29075 0.23404-0.04405-0.02768-0.2326-0.02659-0.4179 0.0026-0.26905 0.04206-0.30876 0.06428-0.19333 0.11114 0.13084 0.05317 0.12758 0.05862-0.03602 0.06428-0.09959 0.0033-0.25365 0.0255-0.34326 0.04947-0.09026 0.02419-0.16317 0.02528-0.16317 0.0028zm6.9161-1.3295c0.04882-0.01961 0.14689-0.0207 0.21676-0.0026 0.0703 0.01852 0.03016 0.03465-0.08896 0.03617-0.11934 0.0015-0.17705-0.01329-0.1278-0.03356z" fill="#fff"/></svg>
