<svg width="256" height="256" version="1.1" viewBox="0 0 19.738 19.738" xmlns="http://www.w3.org/2000/svg">
<!--C-->
 <path d="m3.2299 10.1c-0.18392 0.30449-0.5448 0.50035-0.90973 0.50035-0.52112 0-0.90287-0.42225-0.90287-0.94348 0-0.52112 0.38175-0.94348 0.90287-0.94348 0.36503 0 0.72591 0.19607 0.90973 0.50056l0.65197-1.0551c-0.39411-0.41083-0.94753-0.66776-1.5618-0.66776-1.1961 0-2.1659 0.96965-2.1659 2.1658 0 1.1962 0.96975 2.1659 2.1659 2.1659 0.61427 0 1.1676-0.25703 1.5618-0.66776z"/>
<!--1er I-->
 <path d="m5.5202 11.63v-4.1373h-1.229v4.1373z"/>
<!--T-->
 <path d="m5.8344 7.491v1.0804h0.94254v3.0551h1.2336v-3.0551h0.94265v-1.0804z"/>
<!--R-->
 <path d="m11.841 9.9805c0.47418-0.16128 0.77202-0.60202 0.77202-1.1704 0-0.38508-0.11558-0.6959-0.34385-0.92395-0.25724-0.25724-0.6474-0.39318-1.1287-0.39318h-1.6262v4.1354h1.2402v-1.2356l0.78822 1.2354h1.5622zm-1.0866-1.4786c0.15982 0.00104 0.37521 0.017239 0.48664 0.12857 0.05618 0.056287 0.0836 0.13521 0.0836 0.24166 0 0.25911-0.16637 0.36659-0.57014 0.36991v-0.74014z"/>
<!--2éme I-->
 <path d="m14.387 11.63v-4.1373h-1.229v4.1373z"/>
<!--X-->
 <path d="m17.662 9.3963 1.3685-1.9008h-1.5213l-0.56806 0.87587-0.49048-0.87587h-1.5174l1.2709 1.8939-1.6561 2.2388h1.5007l0.87338-1.2183 0.6904 1.2183h1.4864z"/>
<!--Point rouges -->
 <path d="m4.879 7.3383a0.77794 0.77794 0 1 0 0-1.5559 0.77794 0.77794 0 0 0 0 1.5559z" fill="#cc2131"/>
 <path d="m8.8161 6.1958a0.77784 0.77784 0 1 0 0-1.5557 0.77784 0.77784 0 0 0 0 1.5557z" fill="#cc2131"/>
</svg>
