<svg width="256" height="256" version="1.1" viewBox="0 0 19.738 19.738" xmlns="http://www.w3.org/2000/svg">
 <g transform="matrix(.10385 0 0 .10385 -.14012 -.3505)" clip-rule="evenodd" fill-rule="evenodd">
  <path d="m57.53 76.476v10.403h9.076v29.418h11.879v-29.418h9.077v-10.403zm55.665 23.954c4.566-1.553 7.434-5.797 7.434-11.27 0-3.708-1.113-6.701-3.311-8.897-2.477-2.477-6.234-3.786-10.869-3.786h-15.659v39.821h11.942v-11.898l7.59 11.896h15.043zm-10.463-14.238c1.539 0.01 3.613 0.166 4.686 1.238 0.541 0.542 0.805 1.302 0.805 2.327 0 2.495-1.602 3.53-5.49 3.562v-7.127zm36.354 30.105v-39.839h-11.834v39.839zm31.871-21.492 13.178-18.303h-14.649l-5.47 8.434-4.723-8.434h-14.611l12.238 18.237-15.947 21.558h14.451l8.41-11.731 6.648 11.731h14.313zm-128.6-18.347v39.839h11.943v-39.839z"/>
  <path d="m48.33 74.038a7.491 7.491 0 1 0 0-14.982 7.491 7.491 0 0 0 0 14.982zm84.893 59.661a7.49 7.49 0 1 0 0-14.98 7.49 7.49 0 0 0 0 14.98z" fill="#cc2131"/>
  <path d="m32.451 100.64c-1.771 2.932-5.246 4.818-8.76 4.818-5.018 0-8.694-4.066-8.694-9.085 0-5.018 3.676-9.085 8.694-9.085 3.515 0 6.99 1.888 8.76 4.82l6.278-10.16c-3.795-3.956-9.124-6.43-15.039-6.43-11.518 0-20.856 9.337-20.856 20.855 0 11.519 9.338 20.856 20.856 20.856 5.915 0 11.243-2.475 15.039-6.43zm154.27-22.584a1.603 1.603 0 0 1 3.206 0 1.604 1.604 0 0 1-3.206 0zm1.603 1.387a1.388 1.388 0 1 0-2e-3 -2.776 1.388 1.388 0 0 0 2e-3 2.776zm0.291-1.336c0.203-0.031 0.43-0.13 0.43-0.433 0-0.42-0.377-0.509-0.756-0.509h-0.592v1.761h0.287v-0.695h0.305c0.32 0 0.443 0.101 0.443 0.473 0 0.099 6e-3 0.158 0.023 0.222h0.289c-0.023-0.041-0.033-0.169-0.033-0.292 1e-3 -0.314-0.134-0.471-0.396-0.527zm-0.631-0.087v-0.643h0.305c0.281 0 0.445 0.099 0.445 0.297 0 0.233-0.154 0.346-0.445 0.346z"/>
 </g>
</svg>
